PathFileType	4	(X/Y/Z)	1_1_32_p1_0-491_filt_butterworth.trc
DataRate	CameraRate	NumFrames	NumMarkers	Units	OrigDataRate	OrigDataStartFrame	OrigNumFrames
59.0	59.0	5	27	m	59.0	122	491
Frame#	Time	RHip			RKnee			RAnkle			RBigToe			RSmallToe			RHeel			LHip			LKnee			LAnkle			LBigToe			LSmallToe			LHeel			Neck			Head			Nose			RShoulder			RElbow			RWrist			RThumb			RIndex			RPinky			LShoulder			LElbow			LWrist			LThumb			LIndex			LPinky			
		X1	Y1	Z1	X2	Y2	Z2	X3	Y3	Z3	X4	Y4	Z4	X5	Y5	Z5	X6	Y6	Z6	X7	Y7	Z7	X8	Y8	Z8	X9	Y9	Z9	X10	Y10	Z10	X11	Y11	Z11	X12	Y12	Z12	X13	Y13	Z13	X14	Y14	Z14	X15	Y15	Z15	X16	Y16	Z16	X17	Y17	Z17	X18	Y18	Z18	X19	Y19	Z19	X20	Y20	Z20	X21	Y21	Z21	X22	Y22	Z22	X23	Y23	Z23	X24	Y24	Z24	X25	Y25	Z25	X26	Y26	Z26	X27	Y27	Z27	
122	2.067796610169492	0.37155247017347137	0.2244499827143948	1.107387711510182	0.37086588948089483	0.31053237999283595	1.5241078667035841	0.3541845996107373	0.41136689030895496	1.965974537401622	0.34318351872495795	0.2063800525653824	1.9895875287515736	0.3982061325116962	0.24472956130190193	2.0047498487169984	0.33982901523009446	0.45716670719453645	2.0187494006276774	0.1326438165313843	0.2647287061278722	1.1296271042047556	0.15763286337849106	0.30041241994766016	1.5160332933273963	0.16609556815275342	0.3635117239313641	1.9293716378338075	0.1654480758177118	0.2209530208924731	2.012345204317257	0.11272725353251535	0.22349872974473042	1.9756108795326832	0.19666465553721962	0.4147488229523553	1.9972611073183517	0.253602468350723	0.18045074958814827	0.463385567659926	0.25197223822735215	0.09690639039095526	0.21335462433045307	0.24999417618793013	0.044177857578357446	0.3652267184107948	0.43939517081205126	0.18610422950781794	0.5450454434836491	0.4729078384448291	0.1772296839473178	0.864177438705477	0.3252210043588635	0.08558400806751834	1.07738858935631	0.2606181481747927	0.06037461626516373	1.1482338095720348	0.2454451572484399	0.08173662697506699	1.165142899432493	0.24449555648228277	0.07106182283530738	1.1513732600884368	0.08615515380774996	0.22866321026988792	0.5663385219387093	0.05717230311706764	0.1740081962304394	0.861406102587819	0.20506670008582079	0.07364655142678521	1.0481212091988887	0.30133406207591446	0.01750383687289956	1.1018763738468018	0.2978888632693768	0.008676571981889652	1.1233666750045774	0.24596188284082923	0.07537354520290102	1.1693562004755111
123	2.0847457627118646	0.37152761672536594	0.22446173257447194	1.1074256906111914	0.3710554103426188	0.31009025761430636	1.5239120507747008	0.3541651870834486	0.41137146891291604	1.965983550587004	0.3435098840869777	0.20617967211708604	1.9901244332576078	0.39755066290724483	0.24276854640305873	2.0041090985791916	0.33983202707447413	0.4576374392652669	2.0182492037986584	0.13265629349156105	0.2647570463384954	1.1296853933169189	0.15708566654354203	0.3000414740032511	1.516018934706034	0.16609956199260606	0.3635000897402874	1.929367788762503	0.16541709662304035	0.22098409776825223	2.0123350894538676	0.11241420561574338	0.22231369201555184	1.9750262174841744	0.1966690668404266	0.41473801251859116	1.9972056803079612	0.25361385920505053	0.18049384922240594	0.4634006992770836	0.25196398781643725	0.09694566410994573	0.21335140258588123	0.25001110518982855	0.0441975549143743	0.36522179688039974	0.4394077012753929	0.18608449993668275	0.5450718520018442	0.47256394486554026	0.17751526008494461	0.8644084181652842	0.32390314067081066	0.08964115096535859	1.078979008585806	0.25898172826006366	0.06456481493544716	1.14923643925831	0.24542670355943574	0.08151752148034601	1.1644077209100778	0.24345325268938614	0.07422554601854514	1.152337221755683	0.08614412383265302	0.22866239964104218	0.5662902214870638	0.05715984192839035	0.17404321475203816	0.8613562876073052	0.2050418190742743	0.07365588297972847	1.0480934001628746	0.30133986548175057	0.017535225694627548	1.101860432969491	0.2967469325990376	0.012499704734145186	1.124256426724416	0.24595619727729665	0.07541959059547854	1.1693678833119947
124	2.101694915254237	0.3714181570401638	0.22503365907221115	1.108089378861864	0.3712122280661598	0.3096311639942849	1.5226424293695773	0.35414626699857604	0.41136068901134415	1.9659727521094272	0.3435350338014403	0.20623789387767144	1.9906083716708176	0.3974035395708818	0.24214021036122677	2.0052251816755438	0.33983551809124296	0.4578556043621559	2.0184112731950306	0.13253980168745685	0.2651349353165877	1.1298779731118915	0.15594169748091347	0.2995626910749531	1.5159903212694161	0.16610545198294907	0.36350578273268785	1.929366540918749	0.16538451676890475	0.22110716911673378	2.0123197571856952	0.11239218277300288	0.22241426971406125	1.9750746633337062	0.19668531925103283	0.41476538447005623	1.9971746616301964	0.253595433782304	0.18043626389918793	0.46340247825462205	0.25195869546007255	0.09696435129305812	0.2133557079624255	0.2500321868302295	0.044164957594792734	0.3655211332930591	0.43940920345237855	0.18614150173480176	0.5451047028588911	0.4716968885164778	0.18021510964220505	0.8648571811523547	0.3228858078042695	0.09261802840156383	1.080254682752578	0.2582434432029223	0.06643534422561569	1.1490905855346805	0.2454104269810426	0.0814230038134067	1.163867151426141	0.24207946843804312	0.07844306598376385	1.1536338213602075	0.08614381401775265	0.22867819315489732	0.566293856432553	0.056441705553013255	0.1755180621140495	0.8616066698222863	0.2050179490720398	0.07365684680911833	1.0480567681616855	0.30131682456547826	0.01755026263729902	1.1018344560683677	0.29587352283628404	0.01540096244605087	1.1246415591922112	0.2459384990344828	0.07547692251599493	1.1693602298647046
125	2.1186440677966103	0.3713399714044815	0.22582040490756222	1.109255836546053	0.3711874375564969	0.30914091966986035	1.5207545109192504	0.35413862760257064	0.4113536339940032	1.9659518605958317	0.3435171168863554	0.20637299643925558	1.9907916867439621	0.3982995084545087	0.24457962582761394	2.007464509485251	0.3398375439100246	0.45791147337603955	2.018644085849965	0.1324463063230986	0.26549780841396464	1.129947438026543	0.1545974359069675	0.2991966956751428	1.5159958297187925	0.16609308661981909	0.36350706972040236	1.9293598634365459	0.16536507195911365	0.22124956556035225	2.0123135105579633	0.11244439283007679	0.22279166425601327	1.9752631100035904	0.19669057851124186	0.41478072221990625	1.9972147705180228	0.2535449091740961	0.180297293025453	0.4633883463012207	0.25197036475911533	0.09695071448005715	0.21337506606071557	0.2500585224037756	0.043994298297904424	0.36630836902854624	0.4394052638269279	0.18621627048323158	0.5451313897939531	0.47062183043081063	0.18444598869971504	0.8659733887623049	0.3225125982646754	0.09347701450367502	1.0813797415227075	0.25901488630491865	0.06445981961852972	1.1479908404502759	0.24540505614501096	0.08147621996467498	1.1637197824376608	0.24105517413741093	0.08166904088450296	1.1546548634761136	0.08614804253924516	0.22872936526090698	0.5663526825897964	0.05499909934698993	0.17883044873916842	0.862254259817406	0.20502792814396284	0.07368680246763375	1.048015148236986	0.30129700991878583	0.017568910559664117	1.101822604318607	0.29548535174799584	0.01654813918967754	1.1246722774455948	0.2458969429572961	0.07554921944746952	1.1693443938069568
126	2.135593220338983	0.37131337869157244	0.22671655933575502	1.110451943123168	0.3709712956088028	0.3086369740257822	1.5192493700261778	0.3541429268003139	0.4113547661958134	1.96593212411124	0.34357144386902105	0.20649203434268848	1.9907382501495463	0.3997807051763063	0.2488027619932325	2.0095055667872206	0.3398363990531566	0.4579114075989709	2.0184435515887715	0.13236426479896413	0.2658852139957557	1.1295785843198882	0.1536654012780984	0.2990547255682168	1.516022354385622	0.16603446099192554	0.3634677699603957	1.929328844705783	0.16536162466213425	0.22136215009779966	2.012328589192162	0.1124869339782949	0.22302058862052532	1.975389586327407	0.19664722465242768	0.41472246548576985	1.997294681599439	0.2535546525397813	0.1803970158862072	0.46337237511931345	0.2519960675707657	0.09690409941086962	0.21340114990226677	0.2500769540632187	0.04365166258964005	0.36736270014072586	0.4393888127885541	0.18628321098947662	0.5451339983750096	0.46987700209831373	0.18762482212891	0.8675333553194298	0.3225601916153734	0.09304950123344662	1.0824447147781695	0.2606679163414458	0.06034168892754217	1.1465747828956014	0.24542079290025454	0.08156781553322716	1.163769795391822	0.24067512156418416	0.08295936562464729	1.1551046063881247	0.08615208697376714	0.22879597746885352	0.5664460683074211	0.05318994888391665	0.18307834976742174	0.8631138268040573	0.20507975652179486	0.07374524985251855	1.0479638730651468	0.3013060814932754	0.01761564436334581	1.1018385636127794	0.2953525577797993	0.0164772343967964	1.1242936119350404	0.2458423467091178	0.07564330259781982	1.1693540467575756
